<svg width="143" height="283" viewBox="0 0 143 283" fill="none" xmlns="http://www.w3.org/2000/svg">
<g clip-path="url(#clip0_1218_1478)">
<path d="M92.3281 6.6875H109.15H109.207V9.29297H109.15V29.2871C109.15 24.0762 107.583 19.6016 104.449 15.8633C101.315 12.125 97.388 9.9349 92.668 9.29297H39.5957C34.1582 12.7669 31.0807 18.0723 30.3633 25.209V62.0254H51.207C51.5469 62.0254 51.849 62.1576 52.1133 62.4219C52.3776 62.6484 52.5098 62.9505 52.5098 63.3281C52.5098 63.7057 52.3776 64.0267 52.1133 64.291C51.849 64.5176 51.5469 64.6309 51.207 64.6309H30.3633V120.309V120.365C30.8542 125.689 32.8177 130.126 36.2539 133.676C39.7279 137.188 43.8815 138.943 48.7148 138.943H26.7949H22.0371H0.117188C4.95052 138.943 9.08529 137.188 12.5215 133.676C15.9954 130.126 17.9779 125.689 18.4688 120.365L18.6387 120.195V25.0391C18.1478 19.7526 16.1654 15.3724 12.6914 11.8984C9.25521 8.42448 5.13932 6.6875 0.34375 6.6875H20.168C21.7539 6.6875 23.6608 6.6875 25.8887 6.6875C26.4928 6.6875 27.0781 6.6875 27.6445 6.6875H28.7207H30.3066C30.3066 6.6875 30.3255 6.6875 30.3633 6.6875H92.3281ZM78.8477 40.6152C78.8477 44.8066 79.7728 48.6204 81.623 52.0566C83.5111 55.4928 86.0221 58.2305 89.1562 60.2695C92.3281 62.3086 95.8398 63.3281 99.6914 63.3281C95.8398 63.3281 92.3281 64.3477 89.1562 66.3867C86.0221 68.4258 83.5111 71.1634 81.623 74.5996C79.7728 78.0358 78.8477 81.8496 78.8477 86.041C78.8477 81.8496 77.9036 78.0358 76.0156 74.5996C74.1654 71.1634 71.6732 68.4258 68.5391 66.3867C65.4049 64.3477 61.9121 63.3281 58.0605 63.3281C61.9121 63.3281 65.4049 62.3086 68.5391 60.2695C71.6732 58.2305 74.1654 55.4928 76.0156 52.0566C77.9036 48.6204 78.8477 44.8066 78.8477 40.6152Z" fill="#344E41"/>
<path d="M141.408 231.24C141.786 232.637 141.975 234.091 141.975 235.602C141.975 236.243 141.937 236.904 141.861 237.584C141.068 244.305 137.538 250.196 131.27 255.256C125.039 260.316 117.034 263.941 107.254 266.131C99.3242 268.132 91.3001 268.604 83.1816 267.547C79.8587 267.132 76.6113 266.433 73.4395 265.451C68.2285 263.865 63.3385 261.581 58.7695 258.598C54.8802 256.068 51.4251 253.047 48.4043 249.535C45.3079 245.872 42.8913 241.851 41.1543 237.471C41.1543 237.395 41.1354 237.339 41.0977 237.301C41.0977 237.263 41.0977 237.225 41.0977 237.188C41.0977 237.188 41.0788 237.188 41.041 237.188C41.041 237.15 41.041 237.131 41.041 237.131C41.041 237.131 41.041 237.112 41.041 237.074C41.0033 237.036 40.9844 236.999 40.9844 236.961C40.9844 236.923 40.9844 236.904 40.9844 236.904C40.9844 236.904 40.9655 236.885 40.9277 236.848C40.9277 236.81 40.9277 236.753 40.9277 236.678C40.89 236.678 40.8711 236.659 40.8711 236.621C40.8711 236.583 40.8522 236.527 40.8145 236.451C40.8145 236.413 40.8145 236.395 40.8145 236.395C40.7767 236.319 40.7578 236.262 40.7578 236.225C40.7578 236.187 40.7578 236.168 40.7578 236.168C40.7578 236.168 40.7389 236.149 40.7012 236.111C40.7012 236.074 40.6823 236.017 40.6445 235.941C40.6068 235.753 40.569 235.583 40.5312 235.432C40.4935 235.356 40.4746 235.281 40.4746 235.205C40.4746 235.205 40.4557 235.186 40.418 235.148C40.418 235.111 40.418 235.054 40.418 234.979C40.3802 234.941 40.3613 234.903 40.3613 234.865C40.3613 234.79 40.3424 234.733 40.3047 234.695C40.3047 234.658 40.2858 234.601 40.248 234.525C40.248 234.488 40.248 234.45 40.248 234.412C40.2103 234.299 40.1725 234.204 40.1348 234.129C40.1348 234.091 40.1348 234.072 40.1348 234.072C40.1348 233.959 40.1159 233.865 40.0781 233.789C40.0781 233.789 40.0781 233.77 40.0781 233.732C40.0404 233.657 40.0215 233.581 40.0215 233.506C40.0215 233.468 40.0026 233.449 39.9648 233.449C39.8138 232.807 39.6816 232.279 39.5684 231.863C39.4928 231.41 39.4551 231.146 39.4551 231.07C39.4173 230.655 39.3984 230.24 39.3984 229.824C39.3984 227.596 39.8516 225.538 40.7578 223.65C41.9661 221.045 43.7598 218.949 46.1387 217.363C48.5553 215.777 51.2741 214.984 54.2949 214.984C58.373 214.984 61.8659 216.438 64.7734 219.346C67.681 222.215 69.1348 225.708 69.1348 229.824C69.1348 233.94 67.681 237.452 64.7734 240.359C61.8659 243.229 58.373 244.664 54.2949 244.664C51.1608 244.664 48.3477 243.796 45.8555 242.059C49.6315 248.289 54.6914 253.368 61.0352 257.295C67.3789 261.184 74.1569 263.752 81.3691 264.998C82.5775 265.225 83.8047 265.395 85.0508 265.508C86.8255 265.621 88.638 265.659 90.4883 265.621C93.5091 265.583 97.3229 264.488 101.93 262.336C106.574 260.146 110.992 257.219 115.184 253.557C119.375 249.856 122.32 245.665 124.02 240.982C125.757 236.3 125.209 231.41 122.377 226.312C119.545 221.177 113.447 216.098 104.082 211.076L73.6094 199.748C72.7786 199.446 71.9479 199.125 71.1172 198.785C71.0039 198.747 70.9095 198.71 70.834 198.672C70.6829 198.596 70.513 198.521 70.3242 198.445C68.3984 197.615 66.5482 196.671 64.7734 195.613C59.5625 192.555 55.069 189.1 51.293 185.248C48.9141 182.756 47.026 180.094 45.6289 177.262C44.2318 174.392 43.5332 171.314 43.5332 168.029C43.5332 162.101 45.5345 156.701 49.5371 151.83C53.5397 146.921 58.8828 143.013 65.5664 140.105C72.2878 137.198 79.7266 135.744 87.8828 135.744C95.3594 135.744 102.232 136.971 108.5 139.426C114.768 141.88 119.941 145.203 124.02 149.395C128.135 153.548 130.722 158.268 131.779 163.555C132.837 165.594 133.365 167.803 133.365 170.182C133.365 174.298 131.911 177.809 129.004 180.717C126.096 183.587 122.604 185.021 118.525 185.021C114.41 185.021 110.898 183.587 107.99 180.717C105.12 177.809 103.686 174.298 103.686 170.182C103.686 166.104 105.12 162.611 107.99 159.703C110.898 156.796 114.41 155.342 118.525 155.342C122.604 155.342 126.096 156.777 129.004 159.646C128.135 158.061 127.135 156.531 126.002 155.059C122.49 149.961 117.43 145.845 110.822 142.711C104.214 139.577 96.5677 137.991 87.8828 137.953C87.1276 137.953 85.6927 138.048 83.5781 138.236C80.7839 138.765 78.3672 139.652 76.3281 140.898C74.3268 142.107 72.7409 143.296 71.5703 144.467C70.3997 145.6 69.7201 146.317 69.5312 146.619C65.944 151.075 63.3197 155.701 61.6582 160.496C59.9967 165.292 59.9967 170.144 61.6582 175.053C63.3574 179.962 67.3978 184.852 73.7793 189.723C74.7988 190.365 78.3294 192.139 84.3711 195.047C90.4128 197.917 97.9082 200.843 106.857 203.826C106.857 203.826 106.876 203.826 106.914 203.826C110.199 204.846 113.352 206.092 116.373 207.564C116.675 207.715 116.996 207.867 117.336 208.018C117.714 208.244 118.11 208.452 118.525 208.641C124.265 211.624 129.212 214.984 133.365 218.723C137.519 222.461 140.2 226.633 141.408 231.24Z" fill="#344E41"/>
</g>
<defs>
<clipPath id="clip0_1218_1478">
<rect width="143" height="283" fill="white"/>
</clipPath>
</defs>
</svg>
