<svg width="143" height="283" viewBox="0 0 143 283" fill="none" xmlns="http://www.w3.org/2000/svg">
<g clip-path="url(#clip0_507_190)">
<path d="M78.84 27.6C24.44 27.6 19.34 73.16 19.34 105.8V111.92H-4.8V118.04H19.34V262.88H-4.8V269H78.16V262.88H54.02V118.04H104.34V111.92H53.68C50.28 79.28 45.18 34.74 78.84 33.72C95.16 33.72 112.16 44.94 104.34 76.56L110.46 78.94L124.06 40.52C124.06 40.52 100.94 27.6 78.84 27.6Z" fill="#EFEBE4"/>
<path d="M90.4922 175.859C91.8047 177.25 93.2812 178.273 94.9219 178.93C96.5625 179.586 98.3516 179.914 100.289 179.914C103.352 179.914 106.734 179.164 110.438 177.664C114.156 176.164 118.109 174.062 122.297 171.359C126.484 168.656 130.836 165.477 135.352 161.82C139.867 158.148 144.469 154.125 149.156 149.75C142.953 155.5 137.383 161.109 132.445 166.578C127.508 172.047 123.516 177.234 120.469 182.141C117.438 187.047 115.664 191.531 115.148 195.594C114.648 199.656 115.727 203.156 118.383 206.094C115.805 203.391 112.633 202.062 108.867 202.109C104.773 202.156 100.133 203.508 94.9453 206.164C89.7734 208.805 84.2344 212.422 78.3281 217.016C72.4219 221.609 66.3125 226.859 60 232.766C66.2031 227 71.7578 221.352 76.6641 215.82C81.5859 210.305 85.5469 205.062 88.5469 200.094C91.5469 195.109 93.2812 190.562 93.75 186.453C94.2344 182.328 93.1484 178.797 90.4922 175.859ZM132.047 165.617C128.812 168.102 125.734 170.281 122.812 172.156C113.75 177.953 106.242 180.852 100.289 180.852C97.9297 180.852 95.7969 180.406 93.8906 179.516C95.9688 184.953 94.4531 191.969 89.3438 200.562C86.4219 205.469 82.3281 210.883 77.0625 216.805C80.3438 214.258 83.4531 212.016 86.3906 210.078C95.4531 204.109 102.945 201.141 108.867 201.172C111.117 201.172 113.164 201.602 115.008 202.461C114.195 200.367 113.93 198.047 114.211 195.5C114.68 191.469 116.5 186.859 119.672 181.672C122.609 176.844 126.734 171.492 132.047 165.617Z" fill="#EFEBE4"/>
</g>
<defs>
<clipPath id="clip0_507_190">
<rect width="142.581" height="283" fill="white"/>
</clipPath>
</defs>
</svg>
