<svg width="512" height="512" viewBox="0 0 512 512" fill="none" xmlns="http://www.w3.org/2000/svg">
<g clip-path="url(#clip0_1218_1450)">
<path d="M497.777 0H184.889C177.028 0 170.667 6.36133 170.667 14.2227V42.6667C170.667 50.528 177.028 56.8893 184.889 56.8893H414.889L4.16527 467.611C1.4426 470.335 0.0559372 473.887 0.00260391 477.455C-0.0533961 481.165 1.33594 484.893 4.16527 487.725L24.2746 507.833C26.9533 510.513 30.4359 511.901 33.9479 511.995C37.7133 512.096 41.5133 510.708 44.3866 507.833L455.111 97.1107V327.111C455.111 334.972 461.472 341.333 469.333 341.333H497.777C505.639 341.333 512 334.972 512 327.111V14.2227C512 6.36133 505.639 0 497.777 0Z" fill="#344E41"/>
</g>
<defs>
<clipPath id="clip0_1218_1450">
<rect width="512" height="512" fill="white"/>
</clipPath>
</defs>
</svg>
